HIERARCHY
ROOT Hips
{
  OFFSET 0.454186 100.25 1.17262
  CHANNELS 6 Xposition Yposition Zposition Zrotation Xrotation Yrotation
  JOINT Spine
  {
    OFFSET 0 10.1816 0.1315
    CHANNELS 3 Zrotation Xrotation Yrotation
    JOINT Spine1
    {
      OFFSET 0 10.0835 -1.0008
      CHANNELS 3 Zrotation Xrotation Yrotation
      JOINT Spine2
      {
        OFFSET 0 9.1 -1.3734
        CHANNELS 3 Zrotation Xrotation Yrotation
        JOINT Neck
        {
          OFFSET 0 16.6717 -2.5162
          CHANNELS 3 Zrotation Xrotation Yrotation
          JOINT Head
          {
            OFFSET 0 9.6179 1.685
            CHANNELS 3 Zrotation Xrotation Yrotation
            End Site
            {
              OFFSET 0 0 0
            }
          }
        }
        JOINT LeftShoulder
        {
          OFFSET 4.5704 10.946 -2.628
          CHANNELS 3 Zrotation Xrotation Yrotation
          JOINT LeftArm
          {
            OFFSET 10.5924 -0.5246 -2.2321
            CHANNELS 3 Zrotation Xrotation Yrotation
            JOINT LeftForeArm
            {
              OFFSET 27.8415 -0.0001 0
              CHANNELS 3 Zrotation Xrotation Yrotation
              JOINT LeftHand
              {
                OFFSET 28.3288 0 0
                CHANNELS 3 Zrotation Xrotation Yrotation
                End Site
                {
                  OFFSET 0 0 0
                }
              }
            }
          }
        }
        JOINT RightShoulder
        {
          OFFSET -4.57 10.9462 -2.628
          CHANNELS 3 Zrotation Xrotation Yrotation
          JOINT RightArm
          {
            OFFSET -10.5928 -0.5248 -2.2321
            CHANNELS 3 Zrotation Xrotation Yrotation
            JOINT RightForeArm
            {
              OFFSET -27.8415 0 0
              CHANNELS 3 Zrotation Xrotation Yrotation
              JOINT RightHand
              {
                OFFSET -28.3288 0 0.0001
                CHANNELS 3 Zrotation Xrotation Yrotation
                End Site
                {
                  OFFSET 0 0 0
                }
              }
            }
          }
        }
      }
    }
  }
  JOINT LeftUpLeg
  {
    OFFSET 8.2078 -6.7517 -1.5996
    CHANNELS 3 Zrotation Xrotation Yrotation
    JOINT LeftLeg
    {
      OFFSET 0 -44.3705 0.2846
      CHANNELS 3 Zrotation Xrotation Yrotation
      JOINT LeftFoot
      {
        OFFSET 0 -44.4279 -2.9822
        CHANNELS 3 Zrotation Xrotation Yrotation
        JOINT LeftToeBase
        {
          OFFSET 0 -8.7287 10.7106
          CHANNELS 3 Zrotation Xrotation Yrotation
          End Site
          {
            OFFSET 0 0 0
          }
        }
      }
    }
  }
  JOINT RightUpLeg
  {
    OFFSET -8.2078 -6.7517 -1.5996
    CHANNELS 3 Zrotation Xrotation Yrotation
    JOINT RightLeg
    {
      OFFSET 0 -44.3705 0.2862
      CHANNELS 3 Zrotation Xrotation Yrotation
      JOINT RightFoot
      {
        OFFSET 0 -44.4277 -2.9838
        CHANNELS 3 Zrotation Xrotation Yrotation
        JOINT RightToeBase
        {
          OFFSET 0 -8.7287 10.7106
          CHANNELS 3 Zrotation Xrotation Yrotation
          End Site
          {
            OFFSET 0 0 0
          }
        }
      }
    }
  }
}
MOTION
Frames:	10
Frame Time:	0.0416667
216.224 100.127 0.333665 4.91098 2.87424 -179.736 1.43269 1.75082 -0.269133 0.853381 3.50578 -0.23883 0.853381 3.50578 -0.23883 4.27875 -0.816864 -1.48828 3.90188 1.11116 2.67793 -9.09773 2.24396 -10.0756 -70.64 9.09371 -5.95249 4.41132 30.5132 -7.83073 -2.64576 -5.16845 -7.03587 21.1017 1.46805 1.87998 51.8902 10.8809 15.5148 -3.2925 25.4729 6.4208 -4.11704 -6.3839 10.0576 5.65982 -22.1954 6.44466 1.80381 63.3184 8.65825 5.49223 -4.54572 -0.10213 0.022575 -0.913728 0.0131895 7.97303 -11.8565 -2.42787 -0.190504 27.5533 -10.6796 -1.05439 -13.4005 -0.317222 0.00535872 -0.176418 -0.00226312 
216.425 100.444 -3.38645 3.51297 2.03845 179.923 1.12879 1.69363 0.267983 0.537443 3.39022 0.64454 0.537443 3.39022 0.644541 3.10036 -0.979169 -1.57397 4.73317 0.779007 1.58821 -10.3475 2.1419 -8.60401 -71.3926 7.11998 -1.84808 4.20325 30.8918 -7.27604 -3.05689 -5.118 -6.61679 19.313 1.78715 3.41242 49.7414 11.51 20.006 -3.89616 21.6706 9.61333 -4.44411 -6.26689 9.41152 3.13009 -25.6756 5.58785 1.40354 54.6997 11.0284 5.31476 -5.55408 0.135067 -1.02091 -1.58172 0.0179828 6.49792 -9.65509 -3.05753 -0.131817 26.3404 -9.52701 -1.03677 -15.174 -0.330548 -0.000728612 -0.0709709 -0.00453329 
216.648 100.849 -6.95852 2.06231 1.37579 179.951 0.73716 1.65721 0.694696 0.323308 3.31618 1.36195 0.323308 3.31618 1.36195 2.12687 -1.11264 -1.7362 5.32812 0.265346 0.407444 -11.2355 2.01784 -7.40237 -72.0887 5.44617 2.96625 4.4923 28.4175 -8.50726 -2.81934 -5.16918 -6.71926 18.1788 1.98917 4.50029 47.0022 11.1021 23.9171 -4.10152 18.7188 11.7687 -4.71333 -6.09285 8.56154 -0.090916 -27.4113 3.97544 0.953872 42.3092 13.1223 6.09932 -2.35492 -0.131608 -2.14623 -1.53315 0.063295 5.02272 -6.78119 -3.55772 -0.104973 23.9145 -9.00504 -0.886885 -16.2698 -0.251932 4.46328e-06 -1.83314e-06 0.00704924 
216.819 101.262 -10.5199 1.02263 0.639557 -179.955 0.340642 1.59077 1.02346 0.219361 3.18324 1.99279 0.21936 3.18324 1.99279 1.50383 -1.16167 -2.0005 5.86065 -0.175777 -0.83697 -11.7108 1.91795 -6.63511 -72.5164 4.43114 7.55769 4.85519 26.0316 -10.0934 -2.18082 -5.25027 -7.00799 17.629 2.09822 5.12354 44.2583 10.3607 27.076 -4.13433 16.131 13.7054 -5.88652 -6.03078 7.94014 -2.78495 -27.5982 2.15862 0.908283 27.2318 12.7997 7.88441 3.17422 -0.752358 0.193104 0.0631497 0.0679391 4.05365 -3.75239 -3.79125 -0.120125 20.8319 -8.88679 -0.70008 -16.2978 -0.198974 0.0500952 -0.8443 0.00914199 
216.903 101.487 -14.225 0.422613 -0.0918413 -179.692 0.00679051 1.47041 1.24551 0.208185 2.94307 2.48962 0.208185 2.94307 2.48962 1.23087 -1.08429 -2.3109 6.35899 -0.38831 -1.98022 -11.7945 1.84897 -6.23514 -72.8923 3.35696 11.5437 5.03201 24.8451 -10.9723 -1.33781 -5.31275 -7.12309 17.4211 2.15456 5.42853 42.2526 9.43115 29.2496 -4.1064 14.0109 15.6543 -7.63598 -6.06687 7.64368 -4.54391 -26.3932 1.13865 0.898743 12.2153 9.64838 7.9998 7.14029 -1.10179 -0.121654 -0.129301 -0.034071 3.43844 -1.70691 -4.22628 -0.115533 19.5884 -8.63391 -0.499432 -15.3549 -0.185854 0.279214 -3.66258 0.00554113 
216.906 101.364 -18.3059 0.120858 -0.650207 -179.44 -0.145733 1.32415 1.3992 0.222758 2.65103 2.81681 0.222758 2.65103 2.81681 1.17267 -1.01859 -2.57956 6.77851 -0.448479 -2.86121 -11.6709 1.79129 -5.98487 -73.3062 1.61993 14.6536 4.78455 24.293 -10.6346 -0.848241 -5.3227 -6.88189 17.3559 2.18771 5.58609 41.4611 8.3307 30.4146 -4.03501 12.2529 17.5415 -9.00662 -6.10435 7.57828 -5.49179 -26.2768 1.26381 0.486066 4.43729 5.81661 5.22127 5.50593 -0.735392 -0.054494 -0.402255 -0.105968 2.91684 -0.227285 -5.0345 -0.0677617 20.2183 -7.90966 0.128762 -14.2693 -0.116537 -0.0375755 -7.89716 -0.0305289 
216.838 101.001 -22.8821 -0.138611 -0.926582 -179.598 -0.162178 1.18912 1.54086 0.176802 2.3806 3.0759 0.176802 2.3806 3.07591 1.12543 -1.1309 -2.7547 7.15519 -0.490949 -3.46029 -11.6972 1.72137 -5.60699 -73.4872 -0.293699 16.6199 4.18448 24.1934 -9.25758 -1.25033 -5.26503 -6.24765 17.2979 2.2124 5.70806 41.7527 7.50068 30.6407 -3.89246 10.4525 19.7142 -9.75533 -6.10746 7.61397 -5.79716 -27.68 1.90022 0.591448 5.37482 4.72632 2.38528 0.72145 -0.33135 0.10253 -1.2373 -0.0422306 2.25535 1.70193 -5.79497 -0.0125768 21.0882 -6.95541 0.807557 -13.151 -0.0162777 -1.34906 -12.038 -0.214829 
216.572 100.664 -27.8996 -0.664833 -0.882297 179.702 -0.240597 1.06171 1.69515 -0.042626 2.12286 3.34647 -0.0426263 2.12286 3.34647 1.00395 -1.30982 -2.88248 7.63646 -0.506406 -3.98353 -12.0416 1.63849 -5.03515 -73.2194 -1.44667 17.3932 3.56917 25.2436 -7.45779 -2.58802 -5.15658 -5.38389 17.2721 2.2224 5.75869 42.7926 7.453 29.7611 -3.68781 8.61634 22.441 -10.3284 -6.11555 7.73072 -6.13091 -27.6312 2.10645 0.752387 7.98972 7.37512 2.24159 -0.954087 -0.371787 0.062368 -2.31725 0.0638752 1.02879 4.05655 -5.93719 0.0232227 21.9071 -6.04386 1.935 -10.6327 0.0535912 -0.848123 -16.5625 -0.00481468 
216.121 100.634 -33.1674 -1.76861 -0.450792 178.958 -0.569172 0.928794 1.80593 -0.539197 1.84983 3.53257 -0.539197 1.84983 3.53257 0.814397 -1.22341 -3.05875 8.32818 -0.349548 -4.73492 -12.5316 1.57888 -4.5355 -72.6009 -1.45498 17.0658 3.16178 27.6892 -5.91641 -4.42709 -5.03456 -4.69644 17.3392 2.20277 5.65418 44.564 8.29775 27.4902 -3.51114 7.17926 25.3249 -11.0466 -6.16199 7.94068 -7.41633 -24.2724 1.77978 0.748541 7.12856 10.6965 4.58425 2.20842 -0.750706 -0.0688793 -2.58959 0.0929863 -1.27138 5.84857 -5.18466 0.0600115 24.0119 -5.24368 6.32649 -4.47456 -0.177888 -2.94249 -24.5768 -0.650365 
215.636 100.83 -38.3718 -3.32715 0.403648 178.827 -1.05994 0.829109 1.7978 -1.23605 1.64163 3.46007 -1.23605 1.64163 3.46007 0.512838 -0.723213 -3.29041 9.05912 0.0467387 -5.75795 -12.9248 1.58923 -4.44004 -71.9027 -0.653739 15.698 3.12395 30.1455 -5.33863 -5.91541 -4.94721 -4.60001 17.3705 2.15901 5.46094 47.2466 9.66408 23.9068 -3.46585 6.46105 27.4707 -11.6422 -6.2159 8.14152 -9.47792 -19.3953 1.95694 0.893549 4.91049 11.5905 7.10573 6.31987 -1.21433 -0.0264915 -1.67583 -0.0127 -3.92758 6.15685 -4.02808 0.0443646 29.0154 -5.34806 11.2729 3.77639 -1.15959 -5.59094 -31.1405 -1.51849 
